<svg width="12" height="14" viewBox="0 0 12 14" fill="none" xmlns="http://www.w3.org/2000/svg">
<path d="M6 3.34375C7.47917 3.34375 8.73958 3.86458 9.78125 4.90625C10.8229 5.94792 11.3438 7.19792 11.3438 8.65625C11.3438 10.1354 10.8125 11.3958 9.75 12.4375C8.70833 13.4792 7.45833 14 6 14C4.54167 14 3.28125 13.4792 2.21875 12.4375C1.17708 11.3958 0.65625 10.1354 0.65625 8.65625H2C2 9.76042 2.38542 10.7083 3.15625 11.5C3.94792 12.2708 4.89583 12.6562 6 12.6562C7.10417 12.6562 8.04167 12.2708 8.8125 11.5C9.60417 10.7083 10 9.76042 10 8.65625C10 7.55208 9.60417 6.61458 8.8125 5.84375C8.04167 5.05208 7.10417 4.65625 6 4.65625V7.34375L2.65625 4L6 0.65625V3.34375Z" fill="white"/>
</svg>
