<svg width="4" height="12" viewBox="0 0 4 12" fill="none" xmlns="http://www.w3.org/2000/svg">
<path d="M1.0625 9.0625C1.33333 8.79167 1.64583 8.65625 2 8.65625C2.35417 8.65625 2.66667 8.79167 2.9375 9.0625C3.20833 9.33333 3.34375 9.64583 3.34375 10C3.34375 10.3542 3.20833 10.6667 2.9375 10.9375C2.66667 11.2083 2.35417 11.3438 2 11.3438C1.64583 11.3438 1.33333 11.2083 1.0625 10.9375C0.791667 10.6667 0.65625 10.3542 0.65625 10C0.65625 9.64583 0.791667 9.33333 1.0625 9.0625ZM1.0625 5.0625C1.33333 4.79167 1.64583 4.65625 2 4.65625C2.35417 4.65625 2.66667 4.79167 2.9375 5.0625C3.20833 5.33333 3.34375 5.64583 3.34375 6C3.34375 6.35417 3.20833 6.66667 2.9375 6.9375C2.66667 7.20833 2.35417 7.34375 2 7.34375C1.64583 7.34375 1.33333 7.20833 1.0625 6.9375C0.791667 6.66667 0.65625 6.35417 0.65625 6C0.65625 5.64583 0.791667 5.33333 1.0625 5.0625ZM2.9375 2.9375C2.66667 3.20833 2.35417 3.34375 2 3.34375C1.64583 3.34375 1.33333 3.20833 1.0625 2.9375C0.791667 2.66667 0.65625 2.35417 0.65625 2C0.65625 1.64583 0.791667 1.33333 1.0625 1.0625C1.33333 0.791667 1.64583 0.65625 2 0.65625C2.35417 0.65625 2.66667 0.791667 2.9375 1.0625C3.20833 1.33333 3.34375 1.64583 3.34375 2C3.34375 2.35417 3.20833 2.66667 2.9375 2.9375Z" fill="#226ED8"/>
</svg>
