<svg width="50" height="24" viewBox="0 0 50 24" fill="none" xmlns="http://www.w3.org/2000/svg">
<path d="M0 12C0 5.37258 5.37258 0 12 0H38C44.6274 0 50 5.37258 50 12C50 18.6274 44.6274 24 38 24H12C5.37258 24 0 18.6274 0 12Z" fill="url(#paint0_linear_1511_193)"/>
<rect x="2" y="2" width="20" height="20" rx="10" fill="white"/>
<path d="M12 8.65625C11.3958 8.65625 10.8333 8.8125 10.3125 9.125C9.8125 9.41667 9.40625 9.82292 9.09375 10.3438C8.80208 10.8438 8.65625 11.3958 8.65625 12C8.65625 12.6042 8.80208 13.1667 9.09375 13.6875C9.40625 14.1875 9.8125 14.5938 10.3125 14.9062C10.8333 15.1979 11.3958 15.3438 12 15.3438C12.6042 15.3438 13.1562 15.1979 13.6562 14.9062C14.1771 14.5938 14.5833 14.1875 14.875 13.6875C15.1875 13.1667 15.3438 12.6042 15.3438 12C15.3438 11.3958 15.1875 10.8438 14.875 10.3438C14.5833 9.82292 14.1771 9.41667 13.6562 9.125C13.1562 8.8125 12.6042 8.65625 12 8.65625ZM5.34375 12.6562H6.65625C6.84375 12.6562 7 12.5938 7.125 12.4688C7.27083 12.3438 7.34375 12.1875 7.34375 12C7.34375 11.8125 7.27083 11.6562 7.125 11.5312C7 11.4062 6.84375 11.3438 6.65625 11.3438H5.34375C5.15625 11.3438 4.98958 11.4062 4.84375 11.5312C4.71875 11.6562 4.65625 11.8125 4.65625 12C4.65625 12.1875 4.71875 12.3438 4.84375 12.4688C4.98958 12.5938 5.15625 12.6562 5.34375 12.6562ZM17.3438 12.6562H18.6562C18.8438 12.6562 19 12.5938 19.125 12.4688C19.2708 12.3438 19.3438 12.1875 19.3438 12C19.3438 11.8125 19.2708 11.6562 19.125 11.5312C19 11.4062 18.8438 11.3438 18.6562 11.3438H17.3438C17.1562 11.3438 16.9896 11.4062 16.8438 11.5312C16.7188 11.6562 16.6562 11.8125 16.6562 12C16.6562 12.1875 16.7188 12.3438 16.8438 12.4688C16.9896 12.5938 17.1562 12.6562 17.3438 12.6562ZM11.3438 5.34375V6.65625C11.3438 6.84375 11.4062 7.01042 11.5312 7.15625C11.6562 7.28125 11.8125 7.34375 12 7.34375C12.1875 7.34375 12.3438 7.28125 12.4688 7.15625C12.5938 7.01042 12.6562 6.84375 12.6562 6.65625V5.34375C12.6562 5.15625 12.5938 5 12.4688 4.875C12.3438 4.72917 12.1875 4.65625 12 4.65625C11.8125 4.65625 11.6562 4.72917 11.5312 4.875C11.4062 5 11.3438 5.15625 11.3438 5.34375ZM11.3438 17.3438V18.6562C11.3438 18.8438 11.4062 19.0104 11.5312 19.1562C11.6562 19.2812 11.8125 19.3438 12 19.3438C12.1875 19.3438 12.3438 19.2812 12.4688 19.1562C12.5938 19.0104 12.6562 18.8438 12.6562 18.6562V17.3438C12.6562 17.1562 12.5938 17 12.4688 16.875C12.3438 16.7292 12.1875 16.6562 12 16.6562C11.8125 16.6562 11.6562 16.7292 11.5312 16.875C11.4062 17 11.3438 17.1562 11.3438 17.3438ZM8 7.0625C7.875 6.91667 7.71875 6.84375 7.53125 6.84375C7.34375 6.84375 7.1875 6.91667 7.0625 7.0625C6.91667 7.1875 6.84375 7.34375 6.84375 7.53125C6.84375 7.71875 6.91667 7.875 7.0625 8L7.75 8.6875C7.89583 8.83333 8.05208 8.90625 8.21875 8.90625C8.40625 8.90625 8.5625 8.83333 8.6875 8.6875C8.8125 8.5625 8.875 8.40625 8.875 8.21875C8.89583 8.03125 8.83333 7.875 8.6875 7.75L8 7.0625ZM16.25 15.3125C16.1042 15.1667 15.9375 15.0938 15.75 15.0938C15.5833 15.0938 15.4375 15.1667 15.3125 15.3125C15.1667 15.4375 15.0938 15.5938 15.0938 15.7812C15.0938 15.9688 15.1667 16.125 15.3125 16.25L16 16.9375C16.125 17.0833 16.2812 17.1562 16.4688 17.1562C16.6562 17.1562 16.8125 17.0833 16.9375 16.9375C17.0833 16.8125 17.1562 16.6562 17.1562 16.4688C17.1562 16.2812 17.0833 16.125 16.9375 16L16.25 15.3125ZM16.9375 8C17.0833 7.875 17.1562 7.71875 17.1562 7.53125C17.1562 7.34375 17.0833 7.1875 16.9375 7.0625C16.8125 6.91667 16.6562 6.84375 16.4688 6.84375C16.2812 6.84375 16.125 6.91667 16 7.0625L15.3125 7.75C15.1667 7.89583 15.0938 8.0625 15.0938 8.25C15.0938 8.41667 15.1667 8.5625 15.3125 8.6875C15.4375 8.8125 15.5938 8.88542 15.7812 8.90625C15.9688 8.90625 16.125 8.83333 16.25 8.6875L16.9375 8ZM8.6875 16.25C8.83333 16.1042 8.90625 15.9479 8.90625 15.7812C8.90625 15.5938 8.83333 15.4375 8.6875 15.3125C8.5625 15.1667 8.40625 15.0938 8.21875 15.0938C8.03125 15.0938 7.875 15.1667 7.75 15.3125L7.0625 16C6.91667 16.125 6.84375 16.2812 6.84375 16.4688C6.84375 16.6562 6.91667 16.8125 7.0625 16.9375C7.1875 17.0625 7.34375 17.1354 7.53125 17.1562C7.71875 17.1562 7.875 17.0833 8 16.9375L8.6875 16.25Z" fill="#FBB910"/>
<defs>
<linearGradient id="paint0_linear_1511_193" x1="0" y1="12" x2="50" y2="12" gradientUnits="userSpaceOnUse">
<stop stop-color="#FFC93F"/>
<stop offset="0.0001" stop-color="#FFC93F"/>
<stop offset="1" stop-color="#FFE03F"/>
</linearGradient>
</defs>
</svg>
