<svg width="23" height="22" viewBox="0 0 23 22" fill="none" xmlns="http://www.w3.org/2000/svg">
<path d="M5.98438 20.0156H10.0156C10.0156 20.5469 9.8125 21.0156 9.40625 21.4219C9.03125 21.7969 8.5625 21.9844 8 21.9844C7.4375 21.9844 6.95312 21.7969 6.54688 21.4219C6.17188 21.0156 5.98438 20.5469 5.98438 20.0156ZM4.01562 18.9844H11.9844V17.0156H4.01562V18.9844ZM15.5 9.51562C15.5 10.4531 15.3594 11.2969 15.0781 12.0469C14.7969 12.7656 14.4375 13.3906 14 13.9219C13.5938 14.4531 13.1719 14.8906 12.7344 15.2344C12.3281 15.5781 12 15.8281 11.75 15.9844H4.25C4 15.8281 3.65625 15.5781 3.21875 15.2344C2.8125 14.8906 2.39062 14.4531 1.95312 13.9219C1.54688 13.3906 1.20312 12.7656 0.921875 12.0469C0.640625 11.2969 0.5 10.4531 0.5 9.51562C0.5 8.48438 0.6875 7.51562 1.0625 6.60938C1.46875 5.70313 2.01562 4.90625 2.70312 4.21875C3.39062 3.53125 4.1875 3 5.09375 2.625C6 2.21875 6.96875 2.01562 8 2.01562C9.03125 2.01562 10 2.21875 10.9062 2.625C11.8125 3 12.6094 3.53125 13.2969 4.21875C13.9844 4.90625 14.5156 5.70313 14.8906 6.60938C15.2969 7.51562 15.5 8.48438 15.5 9.51562ZM20.375 7.35938L19.0156 8.01562L20.375 8.625L20.9844 9.98438L21.6406 8.625L23 8.01562L21.6406 7.35938L20.9844 6L20.375 7.35938ZM17.9844 6L18.9219 3.9375L20.9844 3L18.9219 2.0625L17.9844 0L17.0469 2.0625L14.9844 3L17.0469 3.9375L17.9844 6Z" fill="#FBB910"/>
</svg>
